HIERARCHY
ROOT Hips
{
	OFFSET 0.00000 0.00000 0.00000
	CHANNELS 6 Xposition Yposition Zposition Zrotation Yrotation Xrotation 
	JOINT LHipJoint
	{
		OFFSET 0 0 0
		CHANNELS 3 Zrotation Yrotation Xrotation
		JOINT LeftHip
		{
			OFFSET 1.62964 -1.40469 0.78906
			CHANNELS 3 Zrotation Yrotation Xrotation
			JOINT LeftKnee
			{
				OFFSET 2.29640 -6.30932 0.00000
				CHANNELS 3 Zrotation Yrotation Xrotation
				JOINT LeftAnkle
				{
					OFFSET 2.29451 -6.30412 0.00000
					CHANNELS 3 Zrotation Yrotation Xrotation
					JOINT LeftToe
					{
						OFFSET 0.03611 -0.09921 1.56387
						CHANNELS 3 Zrotation Yrotation Xrotation
						End Site
						{
							OFFSET 0.00000 -0.00000 0.80291
						}
					}
				}
			}
		}
	}
	JOINT RHipJoint
	{
		OFFSET 0 0 0
		CHANNELS 3 Zrotation Yrotation Xrotation
		JOINT RightHip
		{
			OFFSET -1.73712 -1.40469 0.78906
			CHANNELS 3 Zrotation Yrotation Xrotation
			JOINT RightKnee
			{
				OFFSET -2.28137 -6.26801 0.00000
				CHANNELS 3 Zrotation Yrotation Xrotation
				JOINT RightAnkle
				{
					OFFSET -2.28681 -6.28298 0.00000
					CHANNELS 3 Zrotation Yrotation Xrotation
					JOINT RightToe
					{
						OFFSET -0.15927 -0.43759 1.61103
						CHANNELS 3 Zrotation Yrotation Xrotation
						End Site
						{
							OFFSET -0.00000 -0.00000 0.84630
						}
					}
				}
			}
		}
	}
	JOINT lowerback
	{
		OFFSET 0 0 0
		CHANNELS 3 Zrotation Yrotation Xrotation
		JOINT Chest
		{
			OFFSET -0.04227 2.04338 -0.00225
			CHANNELS 3 Zrotation Yrotation Xrotation
			JOINT Chest2
			{
				OFFSET -0.02148 2.04482 -0.04273
				CHANNELS 3 Zrotation Yrotation Xrotation
				JOINT lowerneck
				{
					OFFSET 0 0 0
					CHANNELS 3 Zrotation Yrotation Xrotation
					JOINT Neck
					{
						OFFSET 0.09180 1.44629 0.19359
						CHANNELS 3 Zrotation Yrotation Xrotation
						JOINT Head
						{
							OFFSET 0.00887 1.40645 0.14750
							CHANNELS 3 Zrotation Yrotation Xrotation
							End Site
							{
								OFFSET -0.00669 1.50671 0.03707
							}
						}
					}
				}
				JOINT LeftCollar
				{
					OFFSET 0 0 0
					CHANNELS 3 Zrotation Yrotation Xrotation
					JOINT LeftShoulder
					{
						OFFSET 2.17674 1.86763 -0.06520
CHANNELS 3 Zrotation Xrotation Yrotation
						JOINT LeftElbow
						{
OFFSET 0 -4.657760 0.000000
CHANNELS 3 Zrotation Xrotation Yrotation
							JOINT LeftWrist
							{
OFFSET 0 -3.555390 0.000000
CHANNELS 3 Zrotation Xrotation Yrotation
								JOINT lhand
								{
									OFFSET 0 0 0
CHANNELS 3 Zrotation Xrotation Yrotation
									JOINT LFingers
									{
OFFSET 0 -0.707260 0.000000
CHANNELS 3 Zrotation Xrotation Yrotation
										End Site
										{
OFFSET 0 -0.570220 0.000000
										}
									}
								}
								JOINT LThumb
								{
OFFSET 0 0.000000 0.000000
CHANNELS 3 Zrotation Xrotation Yrotation
									End Site
									{
OFFSET 0 -0.578920 0.578920
									}
								}
							}
						}
					}
				}
				JOINT RightCollar
				{
					OFFSET 0 0 0
					CHANNELS 3 Zrotation Yrotation Xrotation
					JOINT RightShoulder
					{
						OFFSET -2.80694 1.55459 -0.32496
CHANNELS 3 Zrotation Xrotation Yrotation
						JOINT RightElbow
						{
OFFSET 0 -4.719250 -0.000000
CHANNELS 3 Zrotation Xrotation Yrotation
							JOINT RightWrist
							{
OFFSET 0 -3.569900 0.000000
CHANNELS 3 Zrotation Xrotation Yrotation
								JOINT rhand
								{
									OFFSET 0 0 0
CHANNELS 3 Zrotation Xrotation Yrotation
									JOINT RFingers
									{
OFFSET 0 -0.507760 0.000000
CHANNELS 3 Zrotation Xrotation Yrotation
										End Site
										{
OFFSET 0 -0.409370 0.000000
										}
									}
								}
								JOINT RThumb
								{
OFFSET 0 0.000000 0.000000
CHANNELS 3 Zrotation Xrotation Yrotation
									End Site
									{
OFFSET 0 -0.415620 0.415620
									}
								}
							}
						}
					}
				}
			}
		}
	}
}
MOTION
Frames: 11
Frame Time: 0.008333333333333333
5.177235 16.902075 15.490378 189.064060 -26.800067 -158.571970 0.000000 0.000000 0.000000 23.380509 -30.757234 -15.091354 3.615748 11.630640 34.437675 4.190369 -5.432128 -37.734297 6.019471 -14.439118 -45.044710 0.000000 0.000000 0.000000 -15.556149 14.540152 -30.980578 -0.050751 -1.438347 3.956080 4.105875 -36.410442 -31.776020 -5.020066 -13.402834 40.902118 -19.970618 -9.666375 -15.649179 -3.372411 -9.305654 1.427886 4.378149 -5.721264 13.056647 -0.316446 -5.002119 -2.721150 8.695660 -11.056187 22.959957 1.943574 -5.361514 8.072199 0.000000 0.000000 0.000000 68.708312 10.282097 -39.047300 36.440527 -45.812925 15.837847 25.466144 -18.103874 15.064554 0.000000 0.000000 0.000000 -7.125000 0.000000 0.000000 -1.427221 13.382845 -1.058253 0.000000 0.000000 0.000000 -8.861683 45.561621 -9.967243 -48.061104 -52.179647 -24.634858 -12.467770 -3.295589 52.902272 0.000000 0.000000 0.000000 7.125000 0.000000 0.000000 66.238513 75.878563 -52.341245
5.258701 16.832420 15.423536 188.336250 -27.080444 -158.135942 0.000000 0.000000 0.000000 23.351695 -30.757967 -15.316178 3.593679 11.599170 34.328396 4.192920 -5.027584 -37.810409 6.503699 -14.899308 -46.971105 0.000000 0.000000 0.000000 -15.374299 13.642726 -31.394460 -0.072264 -1.734387 4.772297 4.874844 -37.460579 -29.040405 -4.739412 -13.084114 39.684216 -19.951886 -9.636932 -15.503580 -3.465598 -9.290532 1.530915 4.277172 -5.717804 13.072197 -0.331796 -5.065020 -3.178705 8.647090 -11.080845 22.948344 1.912220 -5.338884 8.150178 0.000000 0.000000 0.000000 68.722333 9.919288 -38.888876 36.073247 -45.563409 15.574793 25.238916 -17.873369 14.970556 0.000000 0.000000 0.000000 -7.125000 0.000000 0.000000 -1.572811 13.515578 -1.162103 0.000000 0.000000 0.000000 -8.082280 45.548869 -10.058260 -47.186228 -51.795639 -23.944634 -12.192408 -2.482352 52.708482 0.000000 0.000000 0.000000 7.125000 0.000000 0.000000 65.614619 75.713892 -51.595436
5.339236 16.760567 15.357893 187.636417 -27.377873 -157.712569 0.000000 0.000000 0.000000 23.389625 -30.784611 -15.587497 3.585332 11.587217 34.286860 4.200933 -5.501240 -37.774149 6.463164 -14.862580 -46.813175 0.000000 0.000000 0.000000 -15.133764 12.853210 -31.698433 -0.097974 -2.009044 5.531095 5.412540 -38.212366 -26.442208 -4.544220 -12.849523 38.810761 -19.946477 -9.609753 -15.295701 -3.544797 -9.343220 1.336791 4.225819 -5.719407 12.710928 -0.370327 -5.073033 -2.540641 8.563217 -11.058741 22.805840 1.920166 -5.372339 7.981497 0.000000 0.000000 0.000000 68.735421 9.954614 -39.199126 35.732078 -45.327082 15.331921 24.965461 -17.700814 15.233060 0.000000 0.000000 0.000000 -7.125000 0.000000 0.000000 -1.777151 13.266629 -1.323104 0.000000 0.000000 0.000000 -7.474401 46.176381 -9.882166 -46.437514 -51.451131 -23.358391 -12.115680 -1.662986 52.541471 0.000000 0.000000 0.000000 7.125000 0.000000 0.000000 65.022299 75.630620 -50.969927
5.420781 16.687568 15.289721 186.969633 -27.668321 -157.317861 0.000000 0.000000 0.000000 23.461682 -30.783097 -15.842798 3.578401 11.577220 34.252271 4.212825 -6.058428 -37.749253 6.392077 -14.797491 -46.534990 0.000000 0.000000 0.000000 -14.772738 12.005624 -32.061455 -0.131811 -2.325957 6.408159 5.831633 -38.790176 -23.772181 -4.370273 -12.636244 38.023534 -19.888326 -9.583721 -15.083707 -3.590340 -9.399549 1.177503 4.181414 -5.722190 12.389419 -0.505103 -5.088466 -2.122552 8.478771 -11.040921 22.739279 1.934183 -5.399826 7.883094 0.000000 0.000000 0.000000 68.662820 9.992941 -39.414345 35.364943 -45.069948 15.071514 24.778403 -17.561207 15.586481 0.000000 0.000000 0.000000 -7.125000 0.000000 0.000000 -1.930402 12.908385 -1.451732 0.000000 0.000000 0.000000 -6.964924 46.680131 -9.642404 -45.713720 -51.111143 -22.793595 -11.942640 -1.050679 52.250595 0.000000 0.000000 0.000000 7.125000 0.000000 0.000000 64.037983 75.465097 -49.908280
5.503320 16.613416 15.219069 186.334756 -27.951658 -156.950925 0.000000 0.000000 0.000000 23.566673 -30.753709 -16.082626 3.572957 11.569282 34.224983 4.228526 -6.695843 -37.735815 6.292036 -14.705519 -46.142830 0.000000 0.000000 0.000000 -14.291604 11.097121 -32.485530 -0.173949 -2.685893 7.405664 6.129018 -39.185507 -21.036540 -4.214324 -12.439826 37.306827 -19.778441 -9.558762 -14.868410 -3.602960 -9.459006 1.053468 4.143617 -5.726033 12.108515 -0.734047 -5.111567 -1.924640 8.393169 -11.027695 22.748427 1.953702 -5.421382 7.854809 0.000000 0.000000 0.000000 68.506324 10.033100 -39.535117 34.972598 -44.792550 14.794103 24.678008 -17.455518 16.027711 0.000000 0.000000 0.000000 -7.125000 0.000000 0.000000 -2.032159 12.444155 -1.547504 0.000000 0.000000 0.000000 -6.551800 47.059919 -9.340128 -45.015039 -50.775828 -22.250378 -11.672987 -0.643341 51.839329 0.000000 0.000000 0.000000 7.125000 0.000000 0.000000 62.674861 75.218411 -48.423473
5.585924 16.535486 15.148284 185.635591 -28.199337 -156.540908 0.000000 0.000000 0.000000 23.603067 -30.688267 -16.352810 3.580503 11.580234 34.262713 4.245287 -7.114942 -37.764463 6.323556 -14.734701 -46.266769 0.000000 0.000000 0.000000 -13.545494 9.659858 -33.329469 -0.260493 -3.258314 9.000923 5.704778 -37.999730 -18.935171 -3.684241 -11.710010 34.737077 -19.663917 -9.527043 -14.749678 -3.624262 -9.459807 1.075838 4.079176 -5.717152 12.043807 -0.940324 -5.187227 -2.329915 8.229029 -11.067027 22.925389 1.913969 -5.432266 7.989299 0.000000 0.000000 0.000000 68.362885 9.926456 -39.484032 34.612398 -44.532516 14.541148 24.839076 -17.564634 16.295824 0.000000 0.000000 0.000000 -7.125000 0.000000 0.000000 -1.946683 12.131433 -1.494750 0.000000 0.000000 0.000000 -6.125088 47.089101 -9.023800 -44.406892 -50.472856 -21.780795 -11.111318 -0.502173 51.563202 0.000000 0.000000 0.000000 7.125000 0.000000 0.000000 62.029720 74.899813 -47.513155
5.667881 16.456943 15.079066 184.926209 -28.419873 -156.094451 0.000000 0.000000 0.000000 23.630027 -30.608657 -16.662976 3.597686 11.604876 34.348122 4.255850 -7.463849 -37.774039 6.362874 -14.770933 -46.421088 0.000000 0.000000 0.000000 -12.641190 7.966251 -34.411500 -0.384875 -3.942339 10.919960 4.735391 -35.153721 -18.634894 -2.975734 -10.580197 30.952182 -19.549835 -9.526826 -14.671202 -3.621758 -9.484278 1.146195 4.019810 -5.724856 12.070610 -1.189411 -5.258834 -2.911468 8.087434 -11.089025 23.114066 1.883125 -5.426191 8.162922 0.000000 0.000000 0.000000 68.152559 9.837793 -39.268282 34.267387 -44.281133 14.299670 25.005117 -17.703242 16.510571 0.000000 0.000000 0.000000 -7.125000 0.000000 0.000000 -1.854055 11.875417 -1.433447 0.000000 0.000000 0.000000 -5.880479 46.934308 -8.501362 -43.788698 -50.159123 -21.305117 -10.563169 -0.333248 51.489645 0.000000 0.000000 0.000000 7.125000 0.000000 0.000000 62.084172 74.664314 -47.308767
5.749187 16.377810 15.011416 184.206801 -28.613660 -155.612389 0.000000 0.000000 0.000000 23.647560 -30.515779 -17.012509 3.624284 11.642886 34.480090 4.260572 -7.740388 -37.766362 6.411345 -14.815414 -46.611010 0.000000 0.000000 0.000000 -11.583142 6.023582 -35.726095 -0.546717 -4.735200 13.155227 3.252532 -30.738946 -20.058564 -2.092133 -9.040881 25.931915 -19.433954 -9.556517 -14.631248 -3.596728 -9.531105 1.264771 3.963705 -5.748324 12.187239 -1.475939 -5.327324 -3.667638 7.965306 -11.093460 23.309284 1.859469 -5.402854 8.373144 0.000000 0.000000 0.000000 67.876799 9.763434 -38.888548 33.935804 -44.037121 14.068434 25.176063 -17.869356 16.673947 0.000000 0.000000 0.000000 -7.125000 0.000000 0.000000 -1.754474 11.673955 -1.363848 0.000000 0.000000 0.000000 -5.811142 46.594534 -7.781269 -43.157616 -49.833127 -20.821173 -10.025652 -0.140412 51.610516 0.000000 0.000000 0.000000 7.125000 0.000000 0.000000 62.811364 74.507704 -47.782112
5.828186 16.298611 14.948712 183.470908 -28.754428 -155.083508 0.000000 0.000000 0.000000 23.636341 -30.450137 -17.437217 3.663015 11.697778 34.671275 4.274328 -7.627467 -37.843290 6.590911 -14.976549 -47.307838 0.000000 0.000000 0.000000 -10.386481 3.862180 -37.341721 -0.796066 -5.655200 15.797364 2.583083 -28.406592 -20.967679 -0.918777 -5.511331 15.549076 -19.142268 -9.557852 -14.579094 -3.598931 -9.547533 1.550447 3.780065 -5.758274 12.454351 -1.471064 -5.457207 -4.838656 7.669746 -11.026282 23.131988 1.728985 -5.303154 8.504629 0.000000 0.000000 0.000000 67.508719 9.454118 -38.052354 33.512097 -43.718790 13.775145 25.357098 -17.969857 16.829740 0.000000 0.000000 0.000000 -7.125000 0.000000 0.000000 -1.648363 11.478362 -1.287722 0.000000 0.000000 0.000000 -5.766467 45.605286 -7.090785 -42.270871 -49.355264 -20.147050 -9.301846 -0.165387 51.715825 0.000000 0.000000 0.000000 7.125000 0.000000 0.000000 63.584520 74.275984 -48.215033
5.906771 16.219481 14.890031 182.698217 -28.909158 -154.544653 0.000000 0.000000 0.000000 23.604419 -30.442855 -17.912685 3.711685 11.766253 34.910367 4.294722 -7.535352 -37.949141 6.733988 -15.103432 -47.860363 0.000000 0.000000 0.000000 -9.660421 2.222209 -38.591465 -1.017318 -6.401699 17.959648 2.267892 -26.993672 -20.142199 -1.092951 0.897300 -2.909477 -18.907533 -9.529130 -14.470231 -3.647975 -9.561381 1.638033 3.610629 -5.753024 12.448917 -1.386334 -5.560265 -5.277773 7.377041 -11.001300 22.951701 1.609437 -5.266768 8.499344 0.000000 0.000000 0.000000 67.244774 9.317272 -37.618084 33.138842 -43.435745 13.517691 25.484518 -18.002333 16.952003 0.000000 0.000000 0.000000 -7.125000 0.000000 0.000000 -1.574959 11.326893 -1.235393 0.000000 0.000000 0.000000 -5.617245 45.078178 -6.437099 -41.433477 -48.893255 -19.513679 -8.590386 -0.265712 51.746128 0.000000 0.000000 0.000000 7.125000 0.000000 0.000000 64.100158 74.021945 -48.393911
5.985004 16.140460 14.835302 181.890755 -29.077570 -153.995891 0.000000 0.000000 0.000000 23.554526 -30.491481 -18.438526 3.770085 11.848000 35.196298 4.321178 -7.466131 -38.080980 6.841072 -15.196634 -48.270737 0.000000 0.000000 0.000000 -9.385679 1.080640 -39.490152 -1.210423 -6.979237 19.653894 2.279511 -26.437599 -17.764746 -2.506391 9.849103 -28.489861 -18.725692 -9.472277 -14.306186 -3.740692 -9.573503 1.539241 3.454728 -5.733739 12.186135 -1.230662 -5.638158 -5.033995 7.089501 -11.016887 22.772793 1.501304 -5.290210 8.368268 0.000000 0.000000 0.000000 67.075747 9.342336 -37.558364 32.812318 -43.185233 13.293481 25.558909 -17.968464 17.040936 0.000000 0.000000 0.000000 -7.125000 0.000000 0.000000 -1.533871 11.219255 -1.206595 0.000000 0.000000 0.000000 -5.372035 44.983085 -5.815052 -40.643613 -48.446455 -18.919577 -7.913914 -0.420088 51.706960 0.000000 0.000000 0.000000 7.125000 0.000000 0.000000 64.363564 73.756001 -48.334955
